<?xml version="1.0" encoding="utf-8"?>
<!-- Generator: Adobe Illustrator 23.0.3, SVG Export Plug-In . SVG Version: 6.00 Build 0)  -->
<svg version="1.1" id="Capa_1" xmlns="http://www.w3.org/2000/svg" xmlns:xlink="http://www.w3.org/1999/xlink" x="0px" y="0px"
	 viewBox="0 0 512 512" style="enable-background:new 0 0 512 512;" xml:space="preserve">
<style type="text/css">
	.st0{fill:#FFFFFF;}
</style>
<g>
	<g>
		<circle class="st0" cx="179.2" cy="102.4" r="102.4"/>
	</g>
</g>
<g>
	<g>
		<path class="st0" d="M263.7,250.9c-25.6-12.8-53.8-20.5-84.5-20.5C79.4,230.4,0,309.8,0,409.6h207.4
			C194.6,348.2,227.8,284.2,263.7,250.9z"/>
	</g>
</g>
<g>
	<g>
		<path class="st0" d="M384,256c-71.7,0-128,56.3-128,128s56.3,128,128,128s128-56.3,128-128S455.7,256,384,256z M440.3,376.3
			l-51.2,51.2c-10.2,10.2-25.6,10.2-35.8,0l-25.6-25.6c-10.2-10.2-10.2-25.6,0-35.8s25.6-10.2,35.8,0l7.7,7.7l33.3-33.3
			c10.2-10.2,25.6-10.2,35.8,0S450.6,366.1,440.3,376.3z"/>
	</g>
</g>
</svg>
