<?xml version="1.0" encoding="utf-8"?>
<!-- Generator: Adobe Illustrator 23.0.3, SVG Export Plug-In . SVG Version: 6.00 Build 0)  -->
<svg version="1.1" id="Layer_1" xmlns="http://www.w3.org/2000/svg" xmlns:xlink="http://www.w3.org/1999/xlink" x="0px" y="0px"
	 viewBox="0 0 682 682" style="enable-background:new 0 0 682 682;" xml:space="preserve">
<style type="text/css">
	.st0{fill:#FFFFFF;}
</style>
<path class="st0" d="M499.8,433.4c-6.1-3.3-9.9-9.6-9.9-16.5v-18.7H358.7c-10.3,0-18.7-8.4-18.7-18.7v-74.9
	c0-10.4,8.4-18.7,18.7-18.7h131.1V267c0-6.9,3.8-13.3,9.9-16.5c6.1-3.2,13.5-2.9,19.2,0.9l112.4,74.9c5.2,3.5,8.3,9.3,8.3,15.6
	c0,6.3-3.1,12.1-8.3,15.6L519,432.4C513.2,436.3,505.8,436.6,499.8,433.4z"/>
<path class="st0" d="M452.4,39.7v208.5h-93.7c-6.7,0-12.7,1.1-18.7,3.4v-99.5c0-21-11.6-40.1-31.1-50.2L147.4,21h286.2
	C444.2,21,452.4,29.2,452.4,39.7z"/>
<path class="st0" d="M358.7,435.6h93.7v131.1c0,10.5-8.2,18.7-18.7,18.7H340V432.2C346,434.5,352,435.6,358.7,435.6z"/>
<path class="st0" d="M292.1,135.3L67.3,22.9c-5.6-2.6-12.7-2.6-18,0.7c-5.6,3.7-9,9.7-9,16.1v527c0,8.2,5.2,15.4,12.7,17.6
	l224.8,74.9c5.5,2.2,12.6,1,16.9-2.2c4.9-3.7,7.9-9.4,7.9-15.4V152.1C302.5,145,298.4,138.6,292.1,135.3z M227.6,379.4
	c0,10.5-8.2,18.7-18.7,18.7c-10.5,0-18.7-8.2-18.7-18.7v-74.9c0-10.5,8.2-18.7,18.7-18.7c10.5,0,18.7,8.2,18.7,18.7V379.4z"/>
</svg>
